<svg width="20" height="15" viewBox="0 0 20 15" fill="none" xmlns="http://www.w3.org/2000/svg">
<path d="M13.5979 8.48875C14.7868 9.3025 15.6198 10.405 15.6198 11.875V14.5H19.0909V11.875C19.0909 9.9675 15.993 8.83875 13.5979 8.48875ZM12.1488 7.5C14.0665 7.5 15.6198 5.93375 15.6198 4C15.6198 2.06625 14.0665 0.5 12.1488 0.5C11.7409 0.5 11.3591 0.5875 10.9946 0.71C11.7414 1.64119 12.1487 2.80248 12.1487 4C12.1487 5.19752 11.7414 6.35881 10.9946 7.29C11.3591 7.4125 11.7409 7.5 12.1488 7.5ZM6.94215 7.5C8.85992 7.5 10.4132 5.93375 10.4132 4C10.4132 2.06625 8.85992 0.5 6.94215 0.5C5.02438 0.5 3.47107 2.06625 3.47107 4C3.47107 5.93375 5.02438 7.5 6.94215 7.5ZM6.94215 2.25C7.8967 2.25 8.67769 3.0375 8.67769 4C8.67769 4.9625 7.8967 5.75 6.94215 5.75C5.9876 5.75 5.20661 4.9625 5.20661 4C5.20661 3.0375 5.9876 2.25 6.94215 2.25ZM6.94215 8.375C4.62521 8.375 0 9.5475 0 11.875V14.5H13.8843V11.875C13.8843 9.5475 9.25909 8.375 6.94215 8.375ZM12.1488 12.75H1.73554V11.8837C1.90909 11.2537 4.59917 10.125 6.94215 10.125C9.28512 10.125 11.9752 11.2537 12.1488 11.875V12.75Z" fill="#495560"/>
</svg>
