<svg width="60" height="54" viewBox="0 0 60 54" fill="none" xmlns="http://www.w3.org/2000/svg">
<path d="M41.7401 14.1051C33.0366 16.6688 30.6909 26.5001 30.9998 28.0001C31.3087 29.5001 34.8566 22.0117 41.7401 19.5987C44.5695 18.9848 47.5356 19.5987 49.5177 19.5987C51.4998 19.5987 46.8397 20.254 39.4998 26.0001C32.1599 31.7462 31.4998 32.5001 30.9998 32.5001C30.4998 32.5001 22.8105 16.0551 17.0493 15.7166C11.288 15.378 2.29977 17.2267 1.00023 14.7643C-0.299304 12.3019 3.59288 25.6465 9 29.5001C14.4071 33.3536 24.1601 38.5701 24.58 38.5701C24.9998 38.5701 16.9998 25.0001 17.4998 25.0001C17.9998 25.0001 22.0959 27.1839 24.8269 31.758C28.7587 38.9147 30.6909 53.5001 31.2465 53C31.802 52.5 32.3272 46.3716 32.1724 38.5701C45.1009 33.2829 61.0165 15.6097 59.0237 15.7166C57.0309 15.8235 50.4436 11.5414 41.7401 14.1051Z" fill="white" stroke="#5E81FE"/>
<path d="M37.5 7.5C37.5 11.3361 34.173 14.5 30 14.5C25.827 14.5 22.5 11.3361 22.5 7.5C22.5 3.66391 25.827 0.5 30 0.5C34.173 0.5 37.5 3.66391 37.5 7.5Z" fill="#5E81FE" stroke="white"/>
</svg>
