<svg width="16" height="16" viewBox="0 0 16 16" fill="none" xmlns="http://www.w3.org/2000/svg">
<path d="M3.6889 1C3.52594 1.00003 3.36742 1.05314 3.23733 1.1513C3.10724 1.24945 3.01266 1.3873 2.9679 1.544L1.1099 8.044C1.078 8.15569 1.07247 8.27326 1.09376 8.38744C1.11504 8.50163 1.16256 8.60931 1.23256 8.702C1.30256 8.79469 1.39314 8.86985 1.49714 8.92157C1.60115 8.97328 1.71575 9.00013 1.8319 9H3.3599L2.0149 14.379C1.98812 14.4863 1.99767 14.5995 2.04206 14.7008C2.08645 14.8021 2.16318 14.8858 2.26023 14.9388C2.35728 14.9919 2.46918 15.0112 2.57841 14.9939C2.68765 14.9766 2.78805 14.9235 2.8639 14.843L5.2919 12.273C5.01202 11.4514 4.93055 10.5753 5.05416 9.71619C5.17776 8.8571 5.50292 8.03946 6.00306 7.33011C6.5032 6.62077 7.16412 6.03986 7.93178 5.63488C8.69944 5.22989 9.55205 5.01234 10.4199 5H8.2219L9.3419 2.012C9.3842 1.89854 9.3984 1.77653 9.38329 1.65639C9.36817 1.53625 9.3242 1.42156 9.25512 1.32211C9.18603 1.22267 9.0939 1.14142 8.98659 1.08533C8.87928 1.02924 8.75999 0.999959 8.6389 1H3.6899H3.6889ZM10.4999 15C11.0908 15 11.676 14.8836 12.222 14.6575C12.7679 14.4313 13.264 14.0998 13.6819 13.682C14.0997 13.2641 14.4312 12.768 14.6574 12.2221C14.8835 11.6761 14.9999 11.0909 14.9999 10.5C14.9999 9.90905 14.8835 9.32389 14.6574 8.77792C14.4312 8.23196 14.0997 7.73588 13.6819 7.31802C13.264 6.90016 12.7679 6.56869 12.222 6.34254C11.676 6.1164 11.0908 6 10.4999 6C9.30643 6 8.16183 6.47411 7.31792 7.31802C6.47401 8.16193 5.9999 9.30653 5.9999 10.5C5.9999 11.6935 6.47401 12.8381 7.31792 13.682C8.16183 14.5259 9.30643 15 10.4999 15ZM12.8539 9.354L9.8539 12.354C9.76014 12.4477 9.63298 12.5004 9.5004 12.5004C9.36782 12.5004 9.24066 12.4477 9.1469 12.354L8.1469 11.354C8.10041 11.3076 8.06352 11.2525 8.03834 11.1918C8.01315 11.1311 8.00017 11.0661 8.00012 11.0004C8.00003 10.8677 8.05265 10.7404 8.1464 10.6465C8.24015 10.5526 8.36737 10.4998 8.50005 10.4997C8.63273 10.4996 8.76001 10.5522 8.8539 10.646L9.4999 11.293L12.1459 8.646C12.2398 8.55211 12.3671 8.49937 12.4999 8.49937C12.6327 8.49937 12.76 8.55211 12.8539 8.646C12.9478 8.73989 13.0005 8.86722 13.0005 9C13.0005 9.13278 12.9478 9.26011 12.8539 9.354Z" fill="#7BBCB0"/>
</svg>
