<svg width="18" height="18" viewBox="0 0 18 18" fill="none" xmlns="http://www.w3.org/2000/svg">
<path d="M12.9375 3.9375H15.1875V6.1875H12.9375V3.9375Z" fill="#7BBCB0"/>
<path d="M12.9375 7.3125H15.1875V9.5625H12.9375V7.3125Z" fill="#7BBCB0"/>
<path d="M9.5625 3.9375H11.8125V6.1875H9.5625V3.9375Z" fill="#7BBCB0"/>
<path d="M9.5625 7.3125H11.8125V9.5625H9.5625V7.3125Z" fill="#7BBCB0"/>
<path d="M8.15625 14.625C8.62224 14.625 9 14.2472 9 13.7812C9 13.3153 8.62224 12.9375 8.15625 12.9375C7.69026 12.9375 7.3125 13.3153 7.3125 13.7812C7.3125 14.2472 7.69026 14.625 8.15625 14.625Z" fill="#7BBCB0"/>
<path d="M11.8125 16.875H4.5C4.20172 16.8747 3.91575 16.7561 3.70483 16.5452C3.49392 16.3343 3.3753 16.0483 3.375 15.75V2.25C3.3753 1.95172 3.49392 1.66575 3.70483 1.45483C3.91575 1.24392 4.20172 1.1253 4.5 1.125H11.8125V2.25H4.5V15.75H11.8125V11.25H12.9375V15.75C12.9372 16.0483 12.8186 16.3343 12.6077 16.5452C12.3968 16.7561 12.1108 16.8747 11.8125 16.875Z" fill="#7BBCB0"/>
</svg>
