<svg width="18" height="18" viewBox="0 0 18 18" fill="none" xmlns="http://www.w3.org/2000/svg">
<path d="M8.2515 1.5H5.2515C5.05259 1.5 4.86182 1.57902 4.72117 1.71967C4.58052 1.86032 4.5015 2.05109 4.5015 2.25V5.109C3.81821 5.50332 3.25063 6.0704 2.85571 6.75335C2.46079 7.4363 2.25242 8.21109 2.2515 9V9.741L2.25 9.75L2.2515 9.804V15.75C2.2515 15.9489 2.33052 16.1397 2.47117 16.2803C2.61182 16.421 2.80259 16.5 3.0015 16.5H10.5015C10.7004 16.5 10.8912 16.421 11.0318 16.2803C11.1725 16.1397 11.2515 15.9489 11.2515 15.75V9C11.2505 8.21111 11.0421 7.43634 10.6472 6.75341C10.2523 6.07048 9.68474 5.50338 9.0015 5.109V2.25C9.0015 2.05109 8.92248 1.86032 8.78183 1.71967C8.64118 1.57902 8.45041 1.5 8.2515 1.5ZM6.0015 4.5V3H7.5015V4.5H6.0015ZM9.75225 15H3.75225V10.5H9.75225V15ZM3.7515 9C3.7515 7.3455 5.097 6 6.7515 6C8.406 6 9.7515 7.3455 9.7515 9H3.7515ZM9.75225 2.25H11.2523V3.75H9.75225V2.25ZM12 2.25H13.5V3.75H12V2.25ZM12 4.5H13.5V6H12V4.5ZM14.25 2.25H15.75V3.75H14.25V2.25ZM14.25 4.5H15.75V6H14.25V4.5ZM14.25 6.75H15.75V8.25H14.25V6.75Z" fill="#7BBCB0"/>
</svg>
