<svg width="18" height="18" viewBox="0 0 18 18" fill="none" xmlns="http://www.w3.org/2000/svg">
<path d="M16.6119 7.24219H12.1119C12.0346 7.24219 11.9713 7.30547 11.9713 7.38281V8.22656C11.9713 8.30391 12.0346 8.36719 12.1119 8.36719H16.6119C16.6893 8.36719 16.7525 8.30391 16.7525 8.22656V7.38281C16.7525 7.30547 16.6893 7.24219 16.6119 7.24219ZM14.2564 9.63281H12.1119C12.0346 9.63281 11.9713 9.69609 11.9713 9.77344V10.6172C11.9713 10.6945 12.0346 10.7578 12.1119 10.7578H14.2564C14.3338 10.7578 14.3971 10.6945 14.3971 10.6172V9.77344C14.3971 9.69609 14.3338 9.63281 14.2564 9.63281ZM8.39062 5.66895H7.62949C7.52051 5.66895 7.43262 5.75684 7.43262 5.86582V10.2252C7.43262 10.2885 7.4625 10.3465 7.51348 10.3834L10.1309 12.2924C10.2187 12.3557 10.3418 12.3381 10.4051 12.2502L10.8568 11.6332V11.6314C10.9201 11.5436 10.9008 11.4205 10.8129 11.3572L8.58574 9.74707V5.86582C8.5875 5.75684 8.49785 5.66895 8.39062 5.66895Z" fill="#7BBCB0"/>
<path d="M14.1469 11.8459H13.1309C13.0324 11.8459 12.9393 11.8969 12.8865 11.9812C12.6633 12.3346 12.4031 12.6615 12.1043 12.9604C11.5893 13.4754 10.9899 13.8797 10.3236 14.1609C9.63282 14.4527 8.89982 14.6004 8.14396 14.6004C7.38634 14.6004 6.65333 14.4527 5.96427 14.1609C5.29806 13.8797 4.69864 13.4754 4.18361 12.9604C3.66857 12.4453 3.26427 11.8459 2.98302 11.1797C2.69122 10.4906 2.54357 9.75762 2.54357 9C2.54357 8.24238 2.69122 7.51113 2.98302 6.82031C3.26427 6.1541 3.66857 5.55469 4.18361 5.03965C4.69864 4.52461 5.29806 4.12031 5.96427 3.83906C6.65333 3.54726 7.3881 3.39961 8.14396 3.39961C8.90157 3.39961 9.63458 3.54726 10.3236 3.83906C10.9899 4.12031 11.5893 4.52461 12.1043 5.03965C12.4031 5.33848 12.6633 5.66543 12.8865 6.01875C12.9393 6.10312 13.0324 6.1541 13.1309 6.1541H14.1469C14.2682 6.1541 14.3455 6.02754 14.291 5.92031C13.1449 3.64043 10.8211 2.15859 8.22657 2.12871C4.42794 2.08125 1.27267 5.19082 1.26564 8.98594C1.25861 12.7881 4.34005 15.873 8.1422 15.873C10.7701 15.873 13.1326 14.3859 14.291 12.0797C14.3455 11.9725 14.2664 11.8459 14.1469 11.8459Z" fill="#7BBCB0"/>
</svg>
